<?xml version="1.0" encoding="UTF-8"?>
<svg id="_Слой_1" data-name="Слой 1" xmlns="http://www.w3.org/2000/svg" viewBox="0 0 360.05 409.6">
  <path d="M77.63,409.6c-15.91-3.25-28.01-13.93-30.97-30.16L24.83,120.65h310.4l-21.83,258.79c-2,14.72-16.25,28.4-30.97,30.16H77.63ZM105.41,144.78c-7.69,1.56-9.61,8.54-9.41,15.42.94,31.55,4.44,63.43,6.42,94.96,1.8,28.65,2.32,57.61,4.82,86.19.68,7.74.25,17.57,9.57,19.98,9.87,2.56,15.56-5.35,15.26-14.43-1.59-48.65-6.42-98.97-9.63-147.64-.92-13.95-.22-31.94-2.59-45.3-1.15-6.49-8.12-10.46-14.43-9.18ZM188.56,148.06c-7.35-7.34-19.09-2.36-20.55,7.3v195.6c2.86,14.28,21.17,14.28,24.04,0l-.63-198.16c-.96-1.37-1.73-3.61-2.86-4.73ZM243.5,148.06c-3.87,3.85-3.81,11.55-4.26,16.9-2.43,28.6-3.01,57.53-4.82,86.19-1.98,31.53-5.48,63.41-6.42,94.96-.62,20.68,21.94,18.92,23.98,5.58,2.08-63.83,10.17-127.7,12.08-191.49.15-4.94-.36-9.91-4.55-13.09-4.66-3.53-11.81-3.23-16.01.95Z"/>
  <path d="M264.03,48.81h75.6c3.58,0,11.44,4.86,13.99,7.59,14.2,15.18,3.28,39.82-17.16,40.34l-315.15-.12c-19.45-2.43-28.55-26.33-14.52-40.65,2.43-2.48,10.34-7.15,13.63-7.15h75.6v-15.57c0-13.23,14.77-29.19,27.82-31.31,33.83.07,71.8-3.57,105.41-1.05,16.15,1.21,34.77,15.06,34.77,32.36v15.57ZM120.03,34.04c-.83,4.02.61,10.43,0,14.77h120v-14.77c0-.36-3.13-5.39-3.81-6-1.93-1.76-5.16-2.96-7.75-3.22-30.71-3.03-66.41,2.37-97.66.02-4.18.25-9.96,5.23-10.78,9.2Z"/>
</svg>